<?xml version="1.0" standalone="no"?><!-- Generator: Gravit.io --><svg xmlns="http://www.w3.org/2000/svg" xmlns:xlink="http://www.w3.org/1999/xlink" style="isolation:isolate" viewBox="977 297 360 360" width="360" height="360"><g><path d="M 1157 327 L 1157 327 C 1239.787 327 1307 394.213 1307 477 L 1307 477 C 1307 559.787 1239.787 627 1157 627 L 1157 627 C 1074.213 627 1007 559.787 1007 477 L 1007 477 C 1007 394.213 1074.213 327 1157 327 Z" style="fill:none;stroke:#C49000;stroke-width:20;stroke-linecap:square;stroke-miterlimit:3;"/><g><path d=" M 1073.879 558.579 L 1087.426 545.032 L 1085.7 543.179 C 1068.928 525.226 1059.609 501.568 1059.632 477 C 1059.632 423.316 1103.316 379.632 1157 379.632 C 1161.089 379.632 1165.411 379.963 1170.158 380.637 L 1170.158 401.858 C 1165.815 401.083 1161.412 400.691 1157 400.684 C 1114.916 400.684 1080.684 434.916 1080.684 477 C 1080.702 495.892 1087.77 514.098 1100.505 528.053 L 1102.353 530.105 L 1117.526 514.932 L 1117.526 558.579 L 1073.879 558.579 Z " fill="rgb(196,144,0)"/><path d=" M 1157 574.368 C 1152.911 574.368 1148.59 574.037 1143.842 573.363 L 1143.842 552.142 C 1148.263 552.926 1152.663 553.316 1157 553.316 C 1199.084 553.316 1233.316 519.084 1233.316 477 C 1233.316 458.147 1226.284 439.995 1213.516 425.911 L 1211.668 423.874 L 1196.474 439.068 L 1196.474 395.421 L 1240.121 395.421 L 1226.532 409.011 L 1228.258 410.884 C 1245.035 428.812 1254.369 452.447 1254.368 477 C 1254.368 530.684 1210.684 574.368 1157 574.368 Z " fill="rgb(196,144,0)"/></g></g></svg>