<?xml version="1.0" encoding="utf-8"?>
<!-- Generator: Adobe Illustrator 21.0.0, SVG Export Plug-In . SVG Version: 6.00 Build 0)  -->
<svg version="1.1"
	 id="svg2" xmlns:cc="http://creativecommons.org/ns#" xmlns:dc="http://purl.org/dc/elements/1.1/" xmlns:inkscape="http://www.inkscape.org/namespaces/inkscape" xmlns:rdf="http://www.w3.org/1999/02/22-rdf-syntax-ns#" xmlns:sodipodi="http://sodipodi.sourceforge.net/DTD/sodipodi-0.dtd" xmlns:svg="http://www.w3.org/2000/svg"
	 xmlns="http://www.w3.org/2000/svg" xmlns:xlink="http://www.w3.org/1999/xlink" x="0px" y="0px" viewBox="0 0 100 100"
	 style="enable-background:new 0 0 100 100;" xml:space="preserve">
<style type="text/css">
	.st0{fill:#AF8B53;}
</style>
<g id="layer3" transform="translate(0,-99.999988)">
	<path id="rect4208" class="st0" d="M20,100c-11.1,0-20,8.9-20,20v60c0,11.1,8.9,20,20,20h60c11.1,0,20-8.9,20-20v-60
		c0-11.1-8.9-20-20-20H20z M48.6,114.2c12.3,0,23,6.6,28.9,16.3l7-4.3l0.4,23.5l-20.8-11.1l7.5-4.5c-4.7-7.8-13.2-13-23-13
		c-11.5,0-21.2,7-25.1,17.1c-0.1,0.3-0.1,0.5-0.3,0.8c-1,2.1-3.2,3.2-4.9,2.4c-1.2-0.5-1.9-1.8-1.9-3.2c0-0.7,0.3-1.5,0.6-2.4
		C21.9,123.3,34.3,114.2,48.6,114.2z M15,150.2l20.8,11.1l-7.5,4.5c4.7,7.8,13.2,13,23,13c11.5,0,21.2-7,25.1-17.1
		c0.1-0.3,0.1-0.5,0.3-0.8c1-2.1,3.2-3.2,4.9-2.4c1.2,0.5,1.9,1.8,1.9,3.2c0,0.7-0.3,1.5-0.6,2.4c-4.9,12.7-17.2,21.7-31.6,21.7
		c-12.3,0-23-6.6-28.9-16.3l-7,4.3L15,150.2z"/>
</g>
</svg>
