<?xml version="1.0" encoding="utf-8"?>
<!-- Generator: Adobe Illustrator 21.0.0, SVG Export Plug-In . SVG Version: 6.00 Build 0)  -->
<svg version="1.1"
	 id="svg2" xmlns:cc="http://creativecommons.org/ns#" xmlns:dc="http://purl.org/dc/elements/1.1/" xmlns:inkscape="http://www.inkscape.org/namespaces/inkscape" xmlns:rdf="http://www.w3.org/1999/02/22-rdf-syntax-ns#" xmlns:sodipodi="http://sodipodi.sourceforge.net/DTD/sodipodi-0.dtd" xmlns:svg="http://www.w3.org/2000/svg"
	 xmlns="http://www.w3.org/2000/svg" xmlns:xlink="http://www.w3.org/1999/xlink" x="0px" y="0px" viewBox="0 0 100 100"
	 style="enable-background:new 0 0 100 100;" xml:space="preserve">
<style type="text/css">
	.st0{fill:#011538;}
</style>
<g id="layer3" transform="translate(0,-99.999988)">
	<g id="rect4208">
		<path class="st0" d="M80,104c8.8,0,16,7.2,16,16v60c0,8.8-7.2,16-16,16H20c-8.8,0-16-7.2-16-16v-60c0-8.8,7.2-16,16-16H80
			 M16.7,145.1c0.9,0.4,1.8,0.6,2.8,0.6c2.9,0,5.8-1.8,7.2-4.7c0.3-0.6,0.5-1.1,0.6-1.4c3.4-8.7,11.8-14.4,21.3-14.4
			c6.7,0,12.9,2.9,17.2,7.8l-3.8,2.3c-1.2,0.7-2,2.1-1.9,3.5c0,1.4,0.8,2.8,2.1,3.4L83,153.2c0.6,0.3,1.2,0.5,1.9,0.5
			c0.7,0,1.4-0.2,2.1-0.6c1.2-0.7,1.9-2.1,1.9-3.5l-0.4-23.5c0-1.4-0.8-2.7-2.1-3.4c-0.6-0.3-1.3-0.5-1.9-0.5
			c-0.7,0-1.5,0.2-2.1,0.6l-3.8,2.3c-7.1-9.4-18.1-14.9-30.1-14.9c-15.5,0-29.7,9.7-35.3,24.1c0,0.1,0,0.1-0.1,0.2l-0.1,0.3
			c-0.3,1-0.7,2.1-0.7,3.4C12.4,141.3,14.1,143.9,16.7,145.1 M15.4,177.8c0.7,0,1.5-0.2,2.1-0.6l3.8-2.3
			c7.1,9.4,18.1,14.9,30.1,14.9c15.5,0,29.7-9.7,35.3-24.3c0-0.1,0-0.1,0.1-0.2l0.1-0.3c0.3-1,0.7-2.1,0.7-3.4
			c0-3.1-1.7-5.7-4.3-6.9c-0.9-0.4-1.8-0.6-2.8-0.6c-2.9,0-5.8,1.8-7.2,4.7c-0.3,0.6-0.5,1.1-0.6,1.4c-3.4,8.7-11.8,14.4-21.3,14.4
			c-6.7,0-12.9-2.9-17.2-7.8l3.8-2.3c1.2-0.7,2-2.1,1.9-3.5c0-1.4-0.8-2.8-2.1-3.4l-20.8-11.1c-0.6-0.3-1.2-0.5-1.9-0.5
			c-0.7,0-1.4,0.2-2.1,0.6c-1.2,0.7-1.9,2.1-1.9,3.5l0.4,23.6c0,1.4,0.8,2.7,2.1,3.4C14.1,177.6,14.7,177.8,15.4,177.8 M27.3,139.4
			L27.3,139.4L27.3,139.4 M80,100H20c-11.1,0-20,8.9-20,20v60c0,11.1,8.9,20,20,20h60c11.1,0,20-8.9,20-20v-60
			C100,108.9,91.1,100,80,100L80,100z M19.5,141.7c-0.4,0-0.8-0.1-1.2-0.3c-1.2-0.5-1.9-1.8-1.9-3.2c0-0.7,0.3-1.5,0.6-2.4
			c4.9-12.5,17.3-21.6,31.6-21.6c12.3,0,23,6.6,28.9,16.3l7-4.3l0.4,23.5l-20.8-11.1l7.5-4.5c-4.7-7.8-13.2-13-23-13
			c-11.5,0-21.2,7-25.1,17.1c-0.1,0.3-0.1,0.5-0.3,0.8C22.4,140.6,20.9,141.7,19.5,141.7L19.5,141.7z M15.4,173.8L15,150.2
			l20.8,11.1l-7.5,4.5c4.7,7.8,13.2,13,23,13c11.5,0,21.2-7,25.1-17.1c0.1-0.3,0.1-0.5,0.3-0.8c0.8-1.6,2.3-2.7,3.7-2.7
			c0.4,0,0.8,0.1,1.2,0.3c1.2,0.5,1.9,1.8,1.9,3.2c0,0.7-0.3,1.5-0.6,2.4c-4.9,12.7-17.2,21.7-31.6,21.7c-12.3,0-23-6.6-28.9-16.3
			L15.4,173.8L15.4,173.8z"/>
	</g>
</g>
</svg>
