<?xml version="1.0" standalone="no"?><!-- Generator: Gravit.io --><svg xmlns="http://www.w3.org/2000/svg" xmlns:xlink="http://www.w3.org/1999/xlink" style="isolation:isolate" viewBox="175 351.5 368 368" width="368" height="368"><path d=" M 359 351.5 C 257.539 351.5 175 434.039 175 535.5 C 175 636.961 257.539 719.5 359 719.5 C 460.461 719.5 543 636.961 543 535.5 C 543 434.039 460.461 351.5 359 351.5 Z  M 359 382.167 C 443.87 382.167 512.333 450.63 512.333 535.5 C 512.333 620.37 443.87 688.833 359 688.833 C 274.13 688.833 205.667 620.37 205.667 535.5 C 205.667 450.63 274.13 382.167 359 382.167 Z  M 282.333 458.833 L 282.333 489.5 L 435.667 489.5 L 435.667 458.833 L 282.333 458.833 Z  M 282.333 520.167 L 282.333 550.833 L 435.667 550.833 L 435.667 520.167 L 282.333 520.167 Z  M 282.333 581.5 L 282.333 612.167 L 435.667 612.167 L 435.667 581.5 L 282.333 581.5 Z " fill="rgb(1,21,56)"/></svg>