<?xml version="1.0" standalone="no"?><!-- Generator: Gravit.io --><svg xmlns="http://www.w3.org/2000/svg" xmlns:xlink="http://www.w3.org/1999/xlink" style="isolation:isolate" viewBox="175 1198 368 368" width="368" height="368"><g><path d=" M 359 1198 C 257.539 1198 175 1280.539 175 1382 C 175 1483.461 257.539 1566 359 1566 C 460.461 1566 543 1483.461 543 1382 C 543 1280.539 460.461 1198 359 1198 Z  M 359 1228.667 C 443.87 1228.667 512.333 1297.13 512.333 1382 C 512.333 1466.87 443.87 1535.333 359 1535.333 C 274.13 1535.333 205.667 1466.87 205.667 1382 C 205.667 1297.13 274.13 1228.667 359 1228.667 Z " fill-rule="evenodd" fill="rgb(1,21,56)"/><path d=" M 419.335 1472.485 L 360.015 1473.015 L 300.695 1473.555 L 281.855 1417.295 L 263.015 1361.045 L 310.695 1325.745 L 358.375 1290.445 L 406.685 1324.885 L 454.985 1359.315 L 437.165 1415.905 L 419.335 1472.485 Z  M 404.625 1452.615 L 359.835 1453.015 L 315.045 1453.425 L 300.825 1410.945 L 286.595 1368.475 L 322.595 1341.825 L 358.595 1315.165 L 395.075 1341.165 L 431.545 1367.165 L 418.085 1409.895 L 404.625 1452.615 Z " fill-rule="evenodd" fill="rgb(1,21,56)"/><path d=" M 391.237 1432.301 L 359.542 1432.578 L 327.848 1432.86 L 317.782 1403.45 L 307.716 1374.046 L 333.191 1355.593 L 358.666 1337.14 L 384.478 1355.143 L 410.284 1373.142 L 400.763 1402.724 L 391.237 1432.301 Z  M 383.377 1421.914 L 359.446 1422.123 L 335.515 1422.337 L 327.917 1400.131 L 320.314 1377.93 L 339.549 1363.999 L 358.784 1350.062 L 378.275 1363.654 L 397.761 1377.245 L 390.569 1399.582 L 383.377 1421.914 Z " fill-rule="evenodd" fill="rgb(1,21,56)"/></g></svg>