<?xml version="1.0" standalone="no"?><!-- Generator: Gravit.io --><svg xmlns="http://www.w3.org/2000/svg" xmlns:xlink="http://www.w3.org/1999/xlink" style="isolation:isolate" viewBox="585 755 368 368" width="368" height="368"><g><path d=" M 769 755 C 667.539 755 585 837.539 585 939 C 585 1040.461 667.539 1123 769 1123 C 870.461 1123 953 1040.461 953 939 C 953 837.539 870.461 755 769 755 Z  M 769 785.667 C 853.87 785.667 922.333 854.13 922.333 939 C 922.333 1023.87 853.87 1092.333 769 1092.333 C 684.13 1092.333 615.667 1023.87 615.667 939 C 615.667 854.13 684.13 785.667 769 785.667 Z " fill-rule="evenodd" fill="rgb(196,144,0)"/><g><rect x="662.953" y="923.667" width="212.094" height="30.667" transform="matrix(0.707,0.707,-0.707,0.707,889.208,-268.738)" fill="rgb(196,144,0)"/><rect x="662.953" y="923.667" width="212.094" height="30.667" transform="matrix(0.707,-0.707,0.707,0.707,-438.738,818.792)" fill="rgb(196,144,0)"/></g></g></svg>