<?xml version="1.0" standalone="no"?><!-- Generator: Gravit.io --><svg xmlns="http://www.w3.org/2000/svg" xmlns:xlink="http://www.w3.org/1999/xlink" style="isolation:isolate" viewBox="168 755 368 368" width="368" height="368"><g><path d=" M 352 755 C 250.539 755 168 837.539 168 939 C 168 1040.461 250.539 1123 352 1123 C 453.461 1123 536 1040.461 536 939 C 536 837.539 453.461 755 352 755 Z  M 352 785.667 C 436.87 785.667 505.333 854.13 505.333 939 C 505.333 1023.87 436.87 1092.333 352 1092.333 C 267.13 1092.333 198.667 1023.87 198.667 939 C 198.667 854.13 267.13 785.667 352 785.667 Z " fill-rule="evenodd" fill="rgb(1,21,56)"/><rect x="245.953" y="923.667" width="212.094" height="30.667" transform="matrix(0.707,0.707,-0.707,0.707,767.072,26.125)" fill="rgb(1,21,56)"/><rect x="245.953" y="923.667" width="212.094" height="30.667" transform="matrix(0.707,-0.707,0.707,0.707,-560.875,523.928)" fill="rgb(1,21,56)"/></g></svg>