<?xml version="1.0" standalone="no"?><!-- Generator: Gravit.io --><svg xmlns="http://www.w3.org/2000/svg" xmlns:xlink="http://www.w3.org/1999/xlink" style="isolation:isolate" viewBox="594 351.5 368 368" width="368" height="368"><path d=" M 778 351.5 C 676.539 351.5 594 434.039 594 535.5 C 594 636.961 676.539 719.5 778 719.5 C 879.461 719.5 962 636.961 962 535.5 C 962 434.039 879.461 351.5 778 351.5 Z  M 778 382.167 C 862.87 382.167 931.333 450.63 931.333 535.5 C 931.333 620.37 862.87 688.833 778 688.833 C 693.13 688.833 624.667 620.37 624.667 535.5 C 624.667 450.63 693.13 382.167 778 382.167 Z  M 701.333 458.833 L 701.333 489.5 L 854.667 489.5 L 854.667 458.833 L 701.333 458.833 Z  M 701.333 520.167 L 701.333 550.833 L 854.667 550.833 L 854.667 520.167 L 701.333 520.167 Z  M 701.333 581.5 L 701.333 612.167 L 854.667 612.167 L 854.667 581.5 L 701.333 581.5 Z " fill="rgb(196,144,0)"/></svg>